<svg width="100" height="24" viewBox="0 0 100 24" fill="none" xmlns="http://www.w3.org/2000/svg">
<path d="M20 4.96751C19.2483 5.34188 18.4534 5.58936 17.64 5.70225C18.4982 5.11368 19.1413 4.18774 19.45 3.09621C18.6436 3.64734 17.7608 4.03564 16.84 4.24425C16.2245 3.47801 15.405 2.96797 14.5098 2.79411C13.6147 2.62024 12.6945 2.79239 11.8938 3.28356C11.093 3.77472 10.4569 4.55712 10.0852 5.50805C9.71355 6.45897 9.62729 7.52463 9.84 8.5379C8.20943 8.44322 6.61444 7.95579 5.15865 7.10729C3.70287 6.25879 2.41885 5.06818 1.39 3.61283C1.02914 4.33628 0.839519 5.15558 0.84 5.98926C0.83872 6.76348 1.00422 7.52604 1.32176 8.20906C1.63929 8.89209 2.09902 9.47437 2.66 9.90407C2.00798 9.8837 1.36989 9.68284 0.8 9.31857V9.37597C0.804887 10.4607 1.13599 11.5103 1.73731 12.347C2.33864 13.1838 3.17326 13.7565 4.1 13.9681C3.74326 14.0928 3.37287 14.1585 3 14.1633C2.74189 14.1598 2.48442 14.1329 2.23 14.0829C2.49391 15.0161 3.00462 15.8315 3.69107 16.4159C4.37753 17.0003 5.20558 17.3245 6.06 17.3433C4.6172 18.6467 2.83588 19.358 1 19.3639C0.665735 19.3651 0.331736 19.3421 0 19.295C1.87443 20.6844 4.05881 21.422 6.29 21.4189C7.82969 21.4372 9.35714 21.1032 10.7831 20.4362C12.2091 19.7693 13.505 18.7828 14.5952 17.5345C15.6854 16.2861 16.548 14.8009 17.1326 13.1655C17.7172 11.5302 18.012 9.77747 18 8.0098C18 7.81464 18 7.60799 18 7.40135C18.7847 6.72953 19.4615 5.90594 20 4.96751Z" fill="white"/>
<path d="M90 9.06536C89.5095 9.06536 89.03 9.23234 88.6222 9.54519C88.2144 9.85804 87.8965 10.3027 87.7088 10.8229C87.5211 11.3432 87.472 11.9156 87.5677 12.4679C87.6633 13.0202 87.8995 13.5275 88.2464 13.9257C88.5932 14.3239 89.0351 14.5951 89.5162 14.7049C89.9972 14.8148 90.4959 14.7584 90.9491 14.5429C91.4022 14.3274 91.7895 13.9625 92.062 13.4943C92.3346 13.0261 92.48 12.4756 92.48 11.9125C92.48 11.5386 92.4159 11.1684 92.2912 10.8229C92.1666 10.4775 91.9839 10.1636 91.7536 9.89927C91.5233 9.63489 91.2499 9.42517 90.9491 9.28209C90.6482 9.139 90.3257 9.06536 90 9.06536ZM99.93 6.25267C99.9247 5.36611 99.7825 4.48765 99.51 3.65811C99.3093 3.0511 98.9987 2.49985 98.5988 2.04074C98.1989 1.58163 97.7187 1.2251 97.19 0.994667C96.4674 0.681785 95.7022 0.518531 94.93 0.512491C93.64 0.432129 93.26 0.432129 90 0.432129C86.74 0.432129 86.36 0.432129 85.07 0.512491C84.2978 0.518531 83.5326 0.681785 82.81 0.994667C82.2813 1.2251 81.8011 1.58163 81.4012 2.04074C81.0013 2.49985 80.6907 3.0511 80.49 3.65811C80.2175 4.48765 80.0753 5.36611 80.07 6.25267C80 7.73364 80 8.16989 80 11.9125C80 15.6551 80 16.0913 80.07 17.5723C80.0808 18.462 80.2228 19.3431 80.49 20.1784C80.6898 20.7826 81.0001 21.3306 81.4 21.7856C81.7982 22.2475 82.2794 22.604 82.81 22.8303C83.5326 23.1432 84.2978 23.3065 85.07 23.3125C86.36 23.3929 86.74 23.3929 90 23.3929C93.26 23.3929 93.64 23.3929 94.93 23.3125C95.7022 23.3065 96.4674 23.1432 97.19 22.8303C97.7206 22.604 98.2018 22.2475 98.6 21.7856C98.9999 21.3306 99.3102 20.7826 99.51 20.1784C99.7823 19.3447 99.9244 18.4626 99.93 17.5723C100 16.0913 100 15.6551 100 11.9125C100 8.16989 100 7.73364 99.93 6.25267ZM97.39 15.437C97.3579 16.1454 97.2262 16.8433 97 17.5034C96.8059 18.0541 96.5173 18.5544 96.1514 18.9745C95.7854 19.3945 95.3497 19.7259 94.87 19.9487C94.2895 20.194 93.6783 20.3297 93.06 20.3506C92.27 20.3506 92.06 20.3506 90 20.3506C87.94 20.3506 87.73 20.3506 86.94 20.3506C86.3217 20.3297 85.7105 20.194 85.13 19.9487C84.6341 19.7372 84.1863 19.3997 83.82 18.9614C83.4577 18.5496 83.1778 18.052 83 17.5034C82.7856 16.8377 82.6706 16.1352 82.66 15.4255C82.66 14.5185 82.66 14.2774 82.66 11.9125C82.66 9.54754 82.66 9.30645 82.66 8.3995C82.6706 7.68981 82.7856 6.98728 83 6.32156C83.1843 5.75225 83.4783 5.23813 83.86 4.81763C84.2203 4.4039 84.6533 4.08299 85.13 3.87624C85.7105 3.63102 86.3217 3.49533 86.94 3.47443C87.73 3.47443 87.94 3.47443 90 3.47443C92.06 3.47443 92.27 3.47443 93.06 3.47443C93.6783 3.49533 94.2895 3.63102 94.87 3.87624C95.3659 4.0878 95.8137 4.42531 96.18 4.86355C96.5423 5.27541 96.8222 5.77295 97 6.32156C97.2136 6.98798 97.3318 7.6897 97.35 8.3995C97.35 9.30645 97.35 9.54754 97.35 11.9125C97.35 14.2774 97.42 14.5185 97.39 15.4255V15.437ZM95.79 6.89557C95.6709 6.52474 95.4832 6.18797 95.2398 5.90851C94.9964 5.62904 94.703 5.41353 94.38 5.27684C93.9365 5.10034 93.4693 5.01485 93 5.02427C92.22 5.02427 92 5.02427 90 5.02427C88 5.02427 87.78 5.02427 87 5.02427C86.5283 5.02957 86.0611 5.13062 85.62 5.32276C85.3019 5.45324 85.0117 5.65996 84.7686 5.92916C84.5255 6.19836 84.3351 6.52388 84.21 6.88409C84.0648 7.39539 83.9938 7.93064 84 8.46838C84 9.36385 84 9.61642 84 11.9125C84 14.2086 84 14.4611 84 15.3566C84.0099 15.8976 84.0978 16.4329 84.26 16.9409C84.3791 17.3117 84.5668 17.6485 84.8102 17.928C85.0536 18.2074 85.347 18.4229 85.67 18.5596C86.0967 18.7398 86.5457 18.8405 87 18.8581C87.78 18.8581 88 18.8581 90 18.8581C92 18.8581 92.22 18.8581 93 18.8581C93.4717 18.8528 93.9389 18.7518 94.38 18.5596C94.703 18.4229 94.9964 18.2074 95.2398 17.928C95.4832 17.6485 95.6709 17.3117 95.79 16.9409C95.9574 16.4345 96.0454 15.8982 96.05 15.3566C96.05 14.4611 96.05 14.2086 96.05 11.9125C96.05 9.61642 96.05 9.36385 96.05 8.46838C96.0503 7.92628 95.9621 7.38891 95.79 6.88409V6.89557ZM90 16.298C89.4988 16.298 89.0026 16.1845 88.5397 15.9639C88.0768 15.7434 87.6563 15.4202 87.3024 15.0128C86.9485 14.6054 86.668 14.1219 86.4771 13.5899C86.2863 13.0579 86.1887 12.4879 86.19 11.9125C86.19 11.0446 86.4143 10.1963 86.8345 9.47485C87.2547 8.75341 87.8519 8.19132 88.5505 7.85973C89.2491 7.52814 90.0177 7.44197 90.7589 7.61212C91.5002 7.78227 92.1808 8.20109 92.7147 8.81556C93.2485 9.43003 93.6116 10.2125 93.7578 11.064C93.9041 11.9154 93.827 12.7976 93.5363 13.5987C93.2457 14.3999 92.7545 15.084 92.125 15.5645C91.4955 16.045 90.7559 16.3003 90 16.298ZM94 8.38802C93.7789 8.36116 93.5744 8.24132 93.4257 8.05161C93.277 7.8619 93.1947 7.61573 93.1947 7.36053C93.1947 7.10533 93.277 6.85916 93.4257 6.66944C93.5744 6.47973 93.7789 6.3599 94 6.33303C94.2211 6.3599 94.4256 6.47973 94.5743 6.66944C94.723 6.85916 94.8053 7.10533 94.8053 7.36053C94.8053 7.61573 94.723 7.8619 94.5743 8.05161C94.4256 8.24132 94.2211 8.36116 94 8.38802Z" fill="white"/>
<path d="M53.51 4.24364H55.39V0.592888C54.4798 0.484223 53.5652 0.430574 52.65 0.432163C49.93 0.432163 48.07 2.3379 48.07 5.82793V8.83579H45V12.9228H48.07V23.3929H51.75V12.9228H54.81L55.27 8.83579H51.75V6.22975C51.75 5.02431 52.03 4.24364 53.51 4.24364Z" fill="white"/>
</svg>
