<svg width="24" height="24" viewBox="0 0 24 24" fill="none" xmlns="http://www.w3.org/2000/svg">
<path d="M15.8278 11.29L10.3557 5.64001C10.2658 5.54628 10.1589 5.47188 10.041 5.42111C9.92323 5.37035 9.79686 5.34421 9.66923 5.34421C9.5416 5.34421 9.41524 5.37035 9.29742 5.42111C9.17961 5.47188 9.07268 5.54628 8.9828 5.64001C8.80273 5.82737 8.70166 6.08082 8.70166 6.34501C8.70166 6.60919 8.80273 6.86264 8.9828 7.05001L13.7685 12.05L8.9828 17C8.80273 17.1874 8.70166 17.4408 8.70166 17.705C8.70166 17.9692 8.80273 18.2226 8.9828 18.41C9.07234 18.5045 9.17912 18.5797 9.29695 18.6312C9.41478 18.6827 9.54132 18.7095 9.66923 18.71C9.79715 18.7095 9.92369 18.6827 10.0415 18.6312C10.1593 18.5797 10.2661 18.5045 10.3557 18.41L15.8278 12.76C15.9259 12.6664 16.0043 12.5527 16.0578 12.4262C16.1114 12.2997 16.139 12.1631 16.139 12.025C16.139 11.8869 16.1114 11.7503 16.0578 11.6238C16.0043 11.4973 15.9259 11.3836 15.8278 11.29Z" fill="black"/>
</svg>
