<svg width="26" height="24" viewBox="0 0 26 24" fill="none" xmlns="http://www.w3.org/2000/svg">
<path d="M16.5717 11.29L10.7612 5.63998C10.6657 5.54625 10.5522 5.47185 10.4271 5.42108C10.302 5.37032 10.1678 5.34418 10.0323 5.34418C9.89677 5.34418 9.76259 5.37032 9.63749 5.42108C9.51239 5.47185 9.39885 5.54625 9.30341 5.63998C9.1122 5.82734 9.00488 6.08079 9.00488 6.34498C9.00488 6.60916 9.1122 6.86261 9.30341 7.04998L14.3851 12.05L9.30341 17C9.1122 17.1873 9.00488 17.4408 9.00488 17.705C9.00488 17.9692 9.1122 18.2226 9.30341 18.41C9.39849 18.5045 9.51187 18.5796 9.63699 18.6311C9.7621 18.6826 9.89647 18.7094 10.0323 18.71C10.1681 18.7094 10.3025 18.6826 10.4276 18.6311C10.5527 18.5796 10.6661 18.5045 10.7612 18.41L16.5717 12.76C16.6759 12.6663 16.7591 12.5527 16.816 12.4262C16.8728 12.2997 16.9022 12.1631 16.9022 12.025C16.9022 11.8869 16.8728 11.7503 16.816 11.6238C16.7591 11.4973 16.6759 11.3836 16.5717 11.29Z" fill="black"/>
</svg>
