<svg width="30" height="26" viewBox="0 0 30 26" fill="none" xmlns="http://www.w3.org/2000/svg">
<path d="M13.0072 0.031776C5.83468 0.031776 0 5.02061 0 11.1534C0 17.2861 5.83468 22.275 13.0072 22.275C15.1999 22.275 17.3554 21.8301 19.1764 20.9722C19.3223 21.1223 19.484 21.2605 19.6595 21.3853L23.3759 24.5629C23.719 24.893 24.1375 25.1597 24.6056 25.3466C25.0736 25.5335 25.5814 25.6366 26.0978 25.6495C26.6141 25.6625 27.1281 25.5852 27.6083 25.4222C28.0884 25.2592 28.5245 25.014 28.8897 24.7016C29.255 24.3893 29.5418 24.0165 29.7324 23.6059C29.9231 23.1954 30.0136 22.7559 29.9984 22.3144C29.9832 21.8729 29.8626 21.4387 29.644 21.0385C29.4255 20.6383 29.1136 20.2805 28.7274 19.9871L25.0111 16.8095C24.83 16.6547 24.6308 16.5162 24.4165 16.3964C25.4199 14.8394 26.0516 13.0282 26.0516 11.1216C26.0516 4.98883 20.217 0 13.0444 0L13.0072 0.031776ZM13.0072 3.20938C18.173 3.20938 22.2981 6.73651 22.2981 11.1534C22.2981 13.2506 21.4062 15.1889 19.8453 16.6189C19.8082 16.6506 19.771 16.6824 19.7338 16.7142C19.5583 16.8389 19.3966 16.9772 19.2507 17.1273C17.6155 18.3983 15.3857 19.1292 12.9701 19.1292C7.80435 19.1292 3.67919 15.602 3.67919 11.1852C3.67919 6.76829 7.80435 3.24115 12.9701 3.24115L13.0072 3.20938Z" fill="white"/>
</svg>
